<svg xmlns="http://www.w3.org/2000/svg" width="512" height="512" viewBox="0 0 512 512"><g fill-rule="evenodd" clip-rule="evenodd" fill="#008cdb"><path d="M347.344 117.248c.099-13.111-5.072-23.366-15.066-31.319-13.359-10.626-29.268-14.621-45.694-16.848-9.574-1.299-19.197-2.078-28.796-3.08h-6.321c-10.02 1.026-20.225 1.15-29.997 3.303-12.654 2.771-25.481 5.938-37.27 11.157-13.248 5.888-20.534 16.946-19.644 32.52.557 9.711.087 19.482.087 29.23 0 8.436 0 8.436 8.213 8.461 25.754.024 51.508.012 77.262.148 2.141.012 5.913.668 6.136 1.645.792 3.625 1.015 7.645.124 11.195-.297 1.162-4.577 1.88-7.051 1.893-41.377.136-82.754.012-124.131.223-16.341.086-30.517 6.395-39.818 19.841-6.234 9.03-11.033 19.532-14.274 30.071-6.433 20.904-5.69 42.675-3.674 64.186 1.583 16.885 5.468 33.436 15.276 47.81 9.674 14.2 22.562 22.501 40.375 21.771 7.372-.297 14.77-.197 22.154.05 4.416.136 5.863-1.559 5.776-5.962-.247-12.704-.111-25.42-.099-38.124.074-34.883 20.806-55.59 55.664-55.59 30.194.013 60.389.174 90.57 0 30.986-.173 50.123-19.618 50.147-50.616.025-27.315-.197-54.652.051-81.965zm-143.922 12.494c-9.488-.285-17.107-8.14-17.12-17.652-.013-10.131 7.459-17.516 17.603-17.429 9.5.074 17.466 7.966 17.429 17.317-.025 9.476-8.647 18.036-17.912 17.764z"/><path d="M164.667 394.752c-.124 13.124 5.06 23.366 15.066 31.319 13.359 10.626 29.255 14.621 45.694 16.848 9.549 1.286 19.173 2.078 28.771 3.08h6.334c10.019-1.026 20.224-1.15 29.996-3.303 12.654-2.771 25.481-5.949 37.27-11.157 13.248-5.888 20.534-16.946 19.644-32.508-.544-9.723-.087-19.494-.087-29.229 0-8.448 0-8.461-8.213-8.474-25.754-.024-51.521-.012-77.273-.148-2.128-.012-5.9-.668-6.111-1.645-.791-3.612-1.026-7.645-.148-11.195.297-1.175 4.59-1.88 7.051-1.893 41.389-.136 82.766 0 124.143-.223 16.354-.086 30.529-6.395 39.818-19.841 6.234-9.03 11.034-19.532 14.275-30.071 6.432-20.904 5.689-42.688 3.673-64.174-1.583-16.896-5.467-33.447-15.276-47.834-9.673-14.188-22.562-22.488-40.362-21.758-7.385.297-14.782.197-22.167-.037-4.416-.137-5.863 1.533-5.776 5.949.247 12.704.111 25.408.099 38.124-.074 34.883-20.806 55.59-55.676 55.577-30.183 0-60.364-.161-90.559.013-30.986.173-50.11 19.618-50.147 50.616-.026 27.326.184 54.651-.039 81.964zm143.909-12.494c9.488.285 17.12 8.14 17.12 17.64.024 10.144-7.446 17.528-17.614 17.441-9.5-.074-17.454-7.966-17.417-17.306.024-9.487 8.659-18.047 17.911-17.775z"/></g></svg>